<svg width="8" height="14" viewBox="0 0 8 14" fill="none" xmlns="http://www.w3.org/2000/svg">
<g clip-path="url(#clip0_20_5727)">
<path d="M0.322273 1.76842C0.13515 1.56842 0.0311934 1.30526 0.0415892 1.03158C0.0415892 0.757895 0.145546 0.505262 0.343065 0.305262C0.530187 0.115789 0.79008 -6.28688e-07 1.06037 -6.03794e-07C1.33066 -5.78901e-07 1.59055 0.0947368 1.78807 0.28421L7.67204 6.24211C7.7656 6.33684 7.83837 6.45263 7.89035 6.57895C7.94232 6.70526 7.97351 6.84211 7.97351 6.97895C7.97351 7.11579 7.94232 7.25263 7.89035 7.38947C7.83837 7.51579 7.7656 7.63158 7.67204 7.72632L1.78807 13.6842C1.69451 13.7789 1.58015 13.8632 1.4554 13.9158C1.32026 13.9684 1.18512 14 1.04997 14C0.914828 14 0.769287 13.9789 0.644539 13.9263C0.51979 13.8737 0.405438 13.7895 0.301481 13.6947C0.207919 13.6 0.135149 13.4737 0.0831709 13.3474C0.0207967 13.2211 5.38137e-06 13.0842 5.3936e-06 12.9368C5.40495e-06 12.8 0.0311924 12.6632 0.083171 12.5368C0.13515 12.4105 0.218315 12.2947 0.322272 12.1895L5.46815 6.97895L4.49095 6L0.322273 1.76842Z" fill="currentColor"/>
</g>
<defs>
<clipPath id="clip0_20_5727">
<rect width="7.97351" height="14" fill="white" transform="translate(7.97351 14) rotate(-180)"/>
</clipPath>
</defs>
</svg>
