<svg width="20.25" height="21" viewBox="0 0 20.25 21" fill="none" xmlns="http://www.w3.org/2000/svg">
<path id="Vector" d="M2.25 11.6667C2.84674 11.6667 3.41903 11.9125 3.84099 12.3501C4.26295 12.7877 4.5 13.3812 4.5 14V21H0V14C0 13.3812 0.237053 12.7877 0.65901 12.3501C1.08097 11.9125 1.65326 11.6667 2.25 11.6667ZM10.125 0C10.7217 0 11.294 0.245833 11.716 0.683417C12.1379 1.121 12.375 1.71449 12.375 2.33333V21H7.875V2.33333C7.875 1.71449 8.11205 1.121 8.53401 0.683417C8.95597 0.245833 9.52826 0 10.125 0ZM18 5.83333C18.5967 5.83333 19.169 6.07917 19.591 6.51675C20.0129 6.95434 20.25 7.54783 20.25 8.16667V21H15.75V8.16667C15.75 7.54783 15.9871 6.95434 16.409 6.51675C16.831 6.07917 17.4033 5.83333 18 5.83333Z" fill="currentColor"/>
</svg>
